<svg width="250" height="250" viewBox="0 0 250 250" fill="none" xmlns="http://www.w3.org/2000/svg">
<mask id="mask0_27_5095" style="mask-type:alpha" maskUnits="userSpaceOnUse" x="0" y="0" width="250" height="250">
<path d="M0 24C0 10.7452 10.7452 0 24 0H226C239.255 0 250 10.7452 250 24V226C250 239.255 239.255 250 226 250H24C10.7452 250 0 239.255 0 226V24Z" fill="#D9D9D9"/>
</mask>
<g mask="url(#mask0_27_5095)">
<mask id="mask1_27_5095" style="mask-type:alpha" maskUnits="userSpaceOnUse" x="20" y="161" width="210" height="58">
<path d="M124.851 218.826C182.759 218.826 229.702 205.881 229.702 189.913C229.702 173.945 182.759 161 124.851 161C66.9434 161 20 173.945 20 189.913C20 205.881 66.9434 218.826 124.851 218.826Z" fill="#49B4E5"/>
</mask>
<g mask="url(#mask1_27_5095)">
<path d="M124.851 218.826C182.759 218.826 229.702 205.881 229.702 189.913C229.702 173.945 182.759 161 124.851 161C66.9434 161 20 173.945 20 189.913C20 205.881 66.9434 218.826 124.851 218.826Z" fill="#49B4E5"/>
<path opacity="0.5" d="M106.767 170.012C108.396 168.815 110.628 168.551 112.582 168.377C115.201 168.143 117.835 168.173 120.46 168.022C128.407 167.565 136.147 165.634 144 164.475V162C139.818 162.336 135.651 162.847 131.506 163.495C127.483 164.125 123.491 165.005 119.44 165.437C109.046 166.544 98.6456 165.358 88.258 164.817C83.1055 164.548 77.8646 164.333 72.7252 164.894C67.971 165.412 63.3193 166.561 58.7817 168.056C54.3979 169.5 50.1119 171.217 45.7939 172.841C41.5458 174.439 37.2628 176.038 32.7917 176.882C28.2644 177.737 23.6342 178.109 19.0003 178.103V182.336C19.1536 182.345 19.3073 182.354 19.46 182.363C21.8916 182.513 24.3185 182.745 26.753 182.861C28.3897 182.938 29.985 182.965 31.5813 182.567C33.6236 182.057 35.6347 181.426 37.6665 180.876C39.9801 180.249 42.3535 179.595 44.7524 179.406C45.9584 179.311 47.5091 179.221 48.0646 180.523C48.968 182.636 46.8815 184.835 45.4774 186.132C42.6242 188.767 39.1874 190.785 35.7991 192.643C31.6265 194.933 27.3151 196.968 22.9497 198.86C21.6394 199.428 20.3214 199.98 19 200.522V206C25.4106 205.33 31.2921 202.041 36.3918 198.246C42.1601 193.953 47.2585 188.838 52.2477 183.679C54.4198 181.433 56.5696 179.162 58.7983 176.97C61.4917 174.319 64.5132 172.135 68.0006 170.644C71.4601 169.164 75.1514 168.293 78.8934 167.94C82.5914 167.59 86.6012 167.435 90.2255 168.392C96.8734 170.149 101.678 175.279 106.325 180.035C108.675 182.44 111.043 184.869 113.817 186.791C116.463 188.624 119.33 190.13 122.292 191.383C128.898 194.178 136.004 195.913 143.137 196.616C143.424 196.644 143.712 196.669 144 196.695V191.943C143.102 191.875 142.201 191.814 141.299 191.773C138.149 191.63 134.986 191.524 131.862 191.068C124.607 190.007 117.392 186.83 111.771 182.094C109.39 180.088 106.958 177.604 105.843 174.629C105.222 172.971 105.227 171.142 106.767 170.012Z" fill="#ACEBFF"/>
<path opacity="0.5" d="M186.767 203.988C188.396 205.185 190.628 205.449 192.582 205.623C195.201 205.857 197.835 205.827 200.46 205.978C208.407 206.435 216.147 208.366 224 209.525V212C219.818 211.664 215.651 211.153 211.506 210.505C207.483 209.875 203.491 208.995 199.44 208.563C189.046 207.456 178.646 208.642 168.258 209.183C163.106 209.452 157.865 209.667 152.725 209.106C147.971 208.588 143.319 207.439 138.782 205.944C134.398 204.5 130.112 202.783 125.794 201.159C121.546 199.561 117.263 197.962 112.792 197.118C108.264 196.263 103.634 195.891 99.0003 195.897V191.664C99.1536 191.655 99.3073 191.646 99.46 191.637C101.892 191.487 104.319 191.255 106.753 191.139C108.39 191.062 109.985 191.035 111.581 191.433C113.624 191.943 115.635 192.574 117.666 193.124C119.98 193.751 122.354 194.405 124.752 194.594C125.958 194.689 127.509 194.779 128.065 193.477C128.968 191.364 126.882 189.165 125.477 187.868C122.624 185.233 119.187 183.215 115.799 181.357C111.626 179.067 107.315 177.032 102.95 175.14C101.639 174.572 100.321 174.02 99 173.478V168C105.411 168.67 111.292 171.959 116.392 175.754C122.16 180.047 127.258 185.162 132.248 190.321C134.42 192.567 136.57 194.838 138.798 197.03C141.492 199.681 144.513 201.865 148.001 203.356C151.46 204.836 155.151 205.707 158.893 206.06C162.591 206.41 166.601 206.565 170.225 205.608C176.873 203.851 181.678 198.721 186.325 193.965C188.675 191.56 191.043 189.131 193.817 187.209C196.463 185.376 199.33 183.87 202.292 182.617C208.898 179.822 216.004 178.087 223.137 177.384C223.424 177.356 223.712 177.331 224 177.305V182.057C223.102 182.125 222.201 182.186 221.299 182.227C218.149 182.37 214.986 182.476 211.862 182.932C204.607 183.993 197.392 187.17 191.771 191.906C189.39 193.912 186.958 196.396 185.843 199.371C185.222 201.029 185.227 202.858 186.767 203.988Z" fill="#ACEBFF"/>
<path opacity="0.5" d="M128.508 171.776C130.506 171.47 132.27 170.078 133.776 168.819C135.793 167.132 137.635 165.249 139.597 163.5C145.54 158.204 152.378 154.096 158.751 149.363L160.501 151.113C157.306 153.832 153.998 156.418 150.609 158.89C147.319 161.289 143.874 163.49 140.704 166.049C132.571 172.615 126.056 180.808 119.093 188.537C115.64 192.37 112.086 196.228 108.056 199.465C104.327 202.461 100.226 204.937 95.9601 207.089C91.8389 209.167 87.5942 210.984 83.3924 212.889C79.2589 214.763 75.1 216.661 71.3417 219.226C67.5357 221.823 63.9983 224.833 60.7259 228.114L57.7329 225.121C57.8348 225.006 57.9373 224.891 58.0386 224.777C59.6519 222.951 61.2041 221.071 62.8438 219.268C63.9464 218.056 65.0555 216.909 66.4659 216.062C68.2705 214.978 70.1388 214.003 71.9644 212.955C74.0433 211.762 76.1841 210.546 78.0139 208.983C78.9343 208.198 80.0939 207.165 79.5666 205.852C78.711 203.719 75.6804 203.639 73.7711 203.715C69.8902 203.869 66.0329 204.872 62.323 205.954C57.7535 207.286 53.2657 208.895 48.8408 210.644C47.5128 211.169 46.1909 211.711 44.8729 212.262L40.9996 208.388C46.0061 204.329 52.491 202.496 58.7804 201.573C65.8951 200.53 73.1166 200.542 80.2923 200.662C83.4167 200.714 86.5428 200.8 89.6687 200.774C93.4477 200.744 97.1286 200.152 100.649 198.74C104.142 197.341 107.368 195.346 110.263 192.95C113.125 190.582 116.07 187.856 117.956 184.617C121.415 178.674 121.185 171.649 121.107 165C121.069 161.638 121.025 158.246 121.628 154.926C122.203 151.758 123.165 148.667 124.374 145.685C127.068 139.038 130.867 132.787 135.413 127.246C135.596 127.023 135.782 126.801 135.968 126.58L139.327 129.939C138.74 130.623 138.147 131.303 137.538 131.97C135.412 134.298 133.25 136.61 131.364 139.142C126.984 145.022 124.129 152.37 123.503 159.694C123.238 162.796 123.274 166.271 124.589 169.164C125.323 170.775 126.62 172.064 128.508 171.776Z" fill="#ACEBFF"/>
</g>
<path d="M217.473 134.368V134.499C216.687 178.161 181.342 204.272 133.185 206.81C119.962 207.503 109.886 206.637 97.9179 202.651C74.6443 194.898 59.7763 181.434 50.8977 157.924C48.9442 152.752 47.8852 147.701 47.7207 142.692C47.4227 134.814 49.3247 127.046 53.3757 119.225C54.5582 116.954 56.0952 114.83 57.8947 112.868C59.7453 110.844 61.8738 109.003 64.1773 107.366C64.2083 107.34 64.2493 107.324 64.2803 107.298C64.3833 107.224 64.4858 107.151 64.5888 107.077C65.0053 106.784 65.4268 106.495 65.8533 106.222C63.9818 104.024 62.3213 101.627 60.9433 99.0728C60.8613 98.7793 60.7788 98.4853 60.7068 98.1863C60.6658 98.0343 60.6243 97.8768 60.5888 97.7193C60.5268 97.4728 60.4653 97.2263 60.4088 96.9798C60.3628 96.7698 60.3163 96.5603 60.2753 96.3503C60.1878 95.9358 60.1058 95.5218 60.0288 95.1073C60.0083 94.9973 59.9928 94.8868 59.9723 94.7768C59.9108 94.4413 59.8593 94.1053 59.8128 93.7643C59.7923 93.6438 59.7767 93.5178 59.7612 93.3918C59.7357 93.2343 59.7153 93.0773 59.6998 92.9198C59.6948 92.8988 59.6893 92.8778 59.6893 92.8623C59.6533 92.5793 59.6223 92.2958 59.5918 92.0073C59.5763 91.8183 59.5558 91.6298 59.5403 91.4408C59.5248 91.2993 59.5147 91.1578 59.5092 91.0108H59.5042C59.4887 90.8533 59.4788 90.6908 59.4733 90.5333C59.4478 90.1923 59.4273 89.8513 59.4168 89.5053C59.4118 89.4318 59.4062 89.3583 59.4062 89.2848C59.3907 88.8023 59.3808 88.3143 59.3808 87.8318C59.3808 86.9823 59.4062 86.1428 59.4632 85.3088C59.4992 84.6008 59.5607 83.8978 59.6432 83.2003C59.6842 82.7963 59.7358 82.3978 59.7978 81.9993C60.0908 79.9273 60.5383 77.9028 61.1343 75.9358C61.3398 75.2488 61.5663 74.5668 61.8078 73.8953C67.9153 56.9112 84.8808 44.7002 104.854 44.7002C112.534 44.7002 119.778 46.5047 126.122 49.7092C134.497 57.1992 139.741 67.9783 139.741 79.9638C139.741 80.4988 139.73 81.0288 139.715 81.5583C139.335 91.3458 135.438 100.247 129.233 107.108C129.978 107.312 130.708 107.496 131.443 107.695C135.52 108.76 139.546 109.751 143.499 110.538C161.802 114.231 178.644 113.67 192.232 96.4443C194.766 93.2238 198.19 92.3318 201.527 92.9403C203.619 93.3233 205.676 94.2938 207.46 95.6523C209.419 97.1368 211.048 99.0828 212.03 101.223C212.251 101.7 212.442 102.183 212.591 102.676C213.388 105.262 214.082 107.811 214.678 110.313C215.316 112.988 215.84 115.616 216.262 118.191C216.596 120.258 216.858 122.293 217.054 124.297C217.396 127.749 217.53 131.106 217.473 134.368Z" fill="url(#paint0_radial_27_5095)"/>
<path d="M217.471 134.496C218.414 180.127 182.539 207.457 133.185 210.069C119.961 210.758 109.887 209.897 97.9145 205.907C74.6449 198.156 59.7744 184.692 50.8969 161.18C48.5194 154.893 47.4644 148.764 47.7174 142.693C47.8864 147.702 48.9414 152.755 50.8969 157.922C59.7744 181.434 74.6449 194.898 97.9145 202.649C109.887 206.639 119.961 207.5 133.185 206.811C181.343 204.27 216.684 178.16 217.471 134.496Z" fill="#F7D02F"/>
<path d="M126.124 49.708C119.779 46.507 112.534 44.6985 104.852 44.6985C79.7397 44.6985 59.3822 64.0046 59.3822 87.8321C59.3822 91.7221 59.9307 95.4827 60.9437 99.0712C57.8627 93.3726 56.1182 86.8701 56.1182 79.9661C56.1182 57.3445 74.8437 39 97.9308 39C108.791 39 118.682 43.048 126.124 49.708Z" fill="#FBFF66"/>
<path d="M57.454 71.8721C51.1295 77.6361 44.145 78.5446 36.883 75.0786C35.427 74.3836 34.0035 73.4506 32.8114 74.6601C30.3584 77.1501 33.9535 84.3331 37.131 87.4936C41.4825 91.8226 54.4725 99.0701 70.1751 88.8471C70.8231 84.7276 68.835 80.1901 67.095 78.9101C65.355 77.6306 63.774 77.3426 61.9235 76.3961C60.073 75.4506 58.594 73.8146 57.454 71.8721Z" fill="#E86E00"/>
<path opacity="0.81" d="M134.255 186.199C112.491 187.348 96.1007 176.123 90.9092 162.802C98.0842 173.324 112.645 181.204 131.062 180.228C165.122 178.433 184.565 147.099 183.806 133.606C184.453 134.008 185.03 134.525 185.564 135.171C192.795 143.941 172.973 184.161 134.255 186.199Z" fill="#F7D02F"/>
<path d="M183.314 133.319C171.721 133.563 152.883 147.486 134.157 140.797C107.721 131.338 91.5564 142.204 89.3059 156.529C89.0669 154.52 89.0804 152.496 89.3904 150.486C91.5709 135.874 107.623 125.238 132.68 136.534C152.25 145.347 173.465 128.022 183.314 133.319Z" fill="#FFFF71"/>
<path d="M131.062 180.228C112.646 181.204 98.0847 173.324 90.9092 162.802L90.8952 162.788C90.0932 160.75 89.5587 158.64 89.3057 156.53C91.5567 142.205 107.722 131.339 134.157 140.798C152.882 147.487 171.72 133.563 183.313 133.319C183.482 133.405 183.651 133.506 183.806 133.606C184.565 147.099 165.122 178.433 131.062 180.228Z" fill="#FFF75A"/>
<g opacity="0.51">
<path d="M65.8947 106.235C71.7297 113.883 79.3812 114.657 86.9327 115.108C87.0417 115.115 79.2727 119.515 70.6982 118.854C67.2097 118.585 60.9411 116.651 57.8486 112.817C59.0216 111.692 60.3166 110.33 61.6781 109.241C63.0401 108.151 64.3492 107.177 65.8947 106.235Z" fill="#F7D02F"/>
</g>
<path d="M100.638 161.327C102.07 163.228 103.468 165.175 105.231 166.692C106.975 168.182 109.148 169.253 111.373 169.203C112.475 169.181 113.542 168.846 114.466 168.234C115.381 167.627 116.151 166.756 116.525 165.711C116.71 165.19 116.789 164.632 116.77 164.065C116.744 163.499 116.621 162.932 116.437 162.382C116.067 161.275 115.446 160.253 114.811 159.25C114.763 159.176 114.783 159.077 114.855 159.028C114.901 158.998 114.959 158.995 115.005 159.015C115.537 159.256 116.081 159.47 116.636 159.653C117.195 159.822 117.762 159.965 118.334 160.08C119.479 160.303 120.645 160.422 121.812 160.419C122.973 160.409 124.157 160.361 125.28 160.156C126.397 159.945 127.484 159.526 128.238 158.753C128.997 157.987 129.333 156.877 129.331 155.774C129.328 154.666 129.007 153.546 128.438 152.605C127.257 150.671 125.298 149.344 123.355 148.027L123.348 148.022C123.111 147.862 123.046 147.536 123.204 147.294C123.341 147.083 123.603 147.006 123.825 147.098C125.185 147.659 126.668 147.894 128.157 147.945C129.649 147.987 131.156 147.811 132.628 147.474C134.09 147.141 135.516 146.597 136.829 145.828C138.146 145.067 139.362 144.108 140.424 142.977C140.442 142.957 140.473 142.957 140.493 142.976C140.511 142.993 140.512 143.022 140.498 143.042C139.551 144.287 138.389 145.375 137.084 146.252C135.776 147.122 134.333 147.807 132.808 148.221C131.296 148.629 129.732 148.875 128.148 148.891C126.566 148.914 124.961 148.658 123.45 148.078L123.921 147.149C124.91 147.801 125.903 148.483 126.839 149.273C127.769 150.064 128.63 150.996 129.266 152.095C129.907 153.212 130.245 154.49 130.224 155.784C130.213 157.069 129.74 158.417 128.778 159.323C127.823 160.238 126.562 160.613 125.374 160.768C124.168 160.913 122.989 160.901 121.8 160.853C120.615 160.782 119.432 160.653 118.269 160.403C117.109 160.145 115.971 159.785 114.878 159.307L115.072 159.073C115.73 160.067 116.401 161.073 116.869 162.214C117.099 162.785 117.271 163.391 117.338 164.022C117.399 164.652 117.345 165.306 117.164 165.925C116.802 167.167 115.97 168.23 114.935 168.949C113.905 169.673 112.638 170.085 111.387 170.082C110.138 170.093 108.908 169.788 107.8 169.264C106.687 168.746 105.677 168.029 104.804 167.182C103.039 165.499 101.76 163.438 100.557 161.382C100.543 161.359 100.551 161.328 100.574 161.314C100.596 161.301 100.623 161.307 100.638 161.327Z" fill="white"/>
<path d="M126.134 170.368C126.486 170.802 126.874 171.197 127.302 171.538C127.739 171.87 128.2 172.163 128.692 172.395C129.673 172.865 130.72 173.184 131.792 173.377C132.862 173.575 133.959 173.676 135.044 173.742C136.119 173.784 137.207 173.745 138.123 173.333C139.038 172.93 139.711 172.128 139.979 171.135C140.263 170.151 140.217 169.051 139.915 168.041C139.602 167.029 139 166.091 138.299 165.251C137.592 164.408 136.786 163.636 135.953 162.891L135.949 162.887C135.876 162.822 135.869 162.71 135.933 162.635C135.979 162.582 136.049 162.563 136.112 162.581C138.35 163.231 140.687 163.508 143.007 163.482C144.158 163.447 145.305 163.251 146.373 162.855C147.439 162.457 148.423 161.845 149.189 161.033C149.953 160.231 150.489 159.199 150.707 158.117C150.933 157.038 150.825 155.899 150.31 154.964C149.805 154.017 148.945 153.295 147.966 152.797C146.985 152.297 145.896 151.976 144.785 151.804C144.501 151.76 144.306 151.49 144.349 151.2C144.392 150.914 144.652 150.716 144.933 150.755L144.936 150.755C146.322 150.948 147.875 150.275 149.383 149.789C150.892 149.269 152.371 148.668 153.759 147.894C155.143 147.119 156.459 146.205 157.574 145.054C158.128 144.479 158.647 143.864 159.098 143.195C159.545 142.525 159.925 141.805 160.23 141.047C160.24 141.022 160.268 141.009 160.293 141.019C160.316 141.029 160.328 141.055 160.322 141.079C159.875 142.671 159.029 144.153 157.943 145.406C156.856 146.659 155.561 147.737 154.144 148.581C152.733 149.441 151.229 150.12 149.708 150.711C148.939 151.001 148.188 151.27 147.386 151.515C146.588 151.748 145.707 151.938 144.792 151.805L144.943 150.756C146.14 150.95 147.333 151.282 148.435 151.874C149.527 152.459 150.548 153.335 151.143 154.51C151.753 155.681 151.849 157.073 151.552 158.31C151.251 159.555 150.603 160.689 149.706 161.565C148.803 162.431 147.695 163.018 146.546 163.376C145.395 163.736 144.196 163.878 143.01 163.855C140.652 163.833 138.313 163.485 136.025 162.928L136.183 162.619C137.035 163.343 137.911 164.053 138.695 164.887C139.477 165.718 140.18 166.667 140.606 167.796C141.023 168.919 141.125 170.179 140.809 171.377C140.647 171.973 140.366 172.551 139.958 173.034C139.55 173.517 139.025 173.894 138.461 174.131C137.322 174.617 136.121 174.616 134.998 174.532C133.873 174.436 132.763 174.277 131.664 174C130.569 173.729 129.483 173.353 128.498 172.774C127.518 172.192 126.643 171.403 126.056 170.424C126.042 170.401 126.049 170.37 126.072 170.356C126.092 170.343 126.119 170.349 126.134 170.368Z" fill="white"/>
<path d="M166.46 141.199C167.555 140.888 168.684 140.692 169.829 140.624C170.97 140.567 172.153 140.606 173.278 141.062C173.832 141.299 174.367 141.67 174.742 142.199C174.948 142.458 175.05 142.754 175.183 143.042C175.264 143.345 175.374 143.65 175.388 143.966C175.474 144.596 175.394 145.23 175.24 145.826C175.096 146.43 174.842 146.987 174.558 147.52C173.973 148.579 173.214 149.513 172.327 150.319C171.406 151.13 170.377 151.687 169.324 152.199C167.205 153.202 164.91 153.735 162.613 153.962L162.659 153.022C163.475 153.19 164.228 153.634 164.799 154.226C165.374 154.818 165.782 155.544 166.038 156.306C166.298 157.067 166.413 157.875 166.361 158.687C166.312 159.497 166.042 160.31 165.583 160.974C165.126 161.64 164.514 162.163 163.847 162.554C163.182 162.95 162.446 163.208 161.705 163.348C160.216 163.637 158.723 163.549 157.254 163.425C158.727 163.375 160.219 163.362 161.618 162.967C162.995 162.583 164.304 161.794 165.033 160.601C165.79 159.43 165.738 157.898 165.254 156.593C164.794 155.277 163.76 154.193 162.475 153.955C162.223 153.908 162.055 153.661 162.101 153.403C162.139 153.191 162.31 153.037 162.51 153.016L162.521 153.015C164.734 152.783 166.913 152.229 168.928 151.313C169.924 150.845 170.917 150.298 171.727 149.606C172.552 148.894 173.28 148.041 173.831 147.094C174.095 146.618 174.343 146.126 174.487 145.608C174.642 145.095 174.73 144.56 174.678 144.038C174.68 143.773 174.593 143.524 174.54 143.268C174.437 143.03 174.364 142.767 174.216 142.567C173.949 142.141 173.535 141.805 173.058 141.567C172.573 141.34 172.042 141.195 171.5 141.086C170.953 140.995 170.396 140.942 169.835 140.931C168.712 140.914 167.581 141.016 166.46 141.199Z" fill="white"/>
<path opacity="0.68" d="M80.469 89.1567C85.6635 89.1567 89.8745 85.8226 89.8745 81.7097C89.8745 77.5968 85.6635 74.2627 80.469 74.2627C75.2745 74.2627 71.0635 77.5968 71.0635 81.7097C71.0635 85.8226 75.2745 89.1567 80.469 89.1567Z" fill="#FFFAA4"/>
<path d="M70.1735 86.4084C54.474 96.6309 41.4835 89.3799 37.129 85.0514C33.9929 81.9309 30.4489 74.8979 32.7259 72.3174C33.6869 74.9274 35.4639 77.6864 37.129 79.3454C41.44 83.6344 54.2265 90.7814 69.727 80.9849C70.232 82.6589 70.465 84.5759 70.1735 86.4084Z" fill="#F76F00"/>
<path d="M58.9796 71.5787C52.3436 77.4132 44.9066 78.4532 37.0811 75.1892C35.8626 74.6792 34.6686 74.0302 33.6101 74.3322C33.2751 73.6637 32.9741 72.9852 32.7266 72.3162C32.7511 72.2817 32.7801 72.2517 32.8141 72.2172C34.0036 71.0087 35.4256 71.9397 36.8821 72.6382C44.1446 76.1002 51.1301 75.1937 57.4556 69.4287C57.9066 70.2017 58.4166 70.9297 58.9796 71.5787Z" fill="#FF9F2C"/>
<path d="M69.727 80.9846C54.2264 90.7817 41.4394 83.6346 37.1289 79.3451C35.8909 78.1121 34.5899 76.2696 33.6094 74.3326C34.6679 74.0306 35.8619 74.6791 37.0804 75.1896C44.9059 78.4536 52.3429 77.4136 58.9789 71.5791C59.1489 71.7771 59.3234 71.9656 59.5034 72.1436C60.2269 72.8866 61.0279 73.5006 61.9209 73.9561C63.7755 74.9021 65.353 75.1896 67.096 76.4671C67.4165 76.7046 67.7465 77.0566 68.067 77.4971C68.7075 78.3696 69.3095 79.5931 69.727 80.9846Z" fill="#FF7F00"/>
<path d="M77.4444 74.6711C80.3903 74.6711 82.7784 72.0388 82.7784 68.7916C82.7784 65.5445 80.3903 62.9121 77.4444 62.9121C74.4985 62.9121 72.1104 65.5445 72.1104 68.7916C72.1104 72.0388 74.4985 74.6711 77.4444 74.6711Z" fill="white"/>
<path d="M76.4167 72.7683C78.4449 72.7683 80.0892 71.0645 80.0892 68.9627C80.0892 66.861 78.4449 65.1572 76.4167 65.1572C74.3884 65.1572 72.7441 66.861 72.7441 68.9627C72.7441 71.0645 74.3884 72.7683 76.4167 72.7683Z" fill="black"/>
<path d="M78.9505 69.3433C80.2467 69.3433 81.2975 68.3124 81.2975 67.0408C81.2975 65.7692 80.2467 64.7383 78.9505 64.7383C77.6543 64.7383 76.6035 65.7692 76.6035 67.0408C76.6035 68.3124 77.6543 69.3433 78.9505 69.3433Z" fill="white"/>
<path opacity="0.67" d="M105.121 51.2818C106.71 50.9228 108.271 50.8043 109.748 50.7828C113.751 50.7232 117.601 51.7368 121.104 53.7268C130.056 58.8113 135.626 74.3973 126.924 82.2963C127.477 80.5918 125.448 57.0218 105.121 51.2818Z" fill="white"/>
<path opacity="0.22" d="M87.4667 161.599C86.5262 160.305 85.7732 158.948 85.1262 157.633C83.3727 154.066 82.4662 150.248 82.4192 146.388C82.2992 136.526 91.2747 125.898 100.748 130.844C99.2692 130.965 82.9642 141.304 87.4667 161.599Z" fill="white"/>
<path opacity="0.67" d="M137.323 114.477C141.368 115.789 145.519 116.764 149.719 117.388C155.746 118.283 161.91 118.452 167.915 117.418C173.583 116.442 179.071 114.392 184.016 111.403C181.084 115.171 177.151 117.999 172.798 119.851C168.446 121.702 163.746 122.606 159.04 122.905C155.001 123.162 150.891 122.972 147.012 121.794C143.135 120.615 139.773 117.763 137.323 114.477Z" fill="white"/>
<path opacity="0.29" d="M63.7026 80.5013C63.6776 80.5578 61.2466 83.9038 54.0906 84.3248C50.6076 84.5298 47.82 83.9598 44.626 82.4688C43.157 81.7833 41.7315 80.9638 40.4915 79.8823C39.6705 79.1663 38.936 78.3383 38.3115 77.4258C39.9055 78.4738 41.6 79.3848 43.315 80.1873C44.9595 80.9568 46.657 81.6113 48.4086 82.0373C53.3221 83.2338 59.1956 82.8983 63.7026 80.5013Z" fill="white"/>
<path opacity="0.49" d="M207.458 95.6524C206.353 99.4969 204.615 103.158 202.307 106.4C198.081 112.343 191.978 116.864 185.136 119.13C193.212 112.547 199.001 103.153 201.525 92.9404C203.618 93.3234 205.674 94.2934 207.458 95.6524Z" fill="#F7D02F"/>
<path opacity="0.49" d="M214.676 110.313C209.823 117.572 201.042 121.978 192.281 122.225C201.468 118.658 208.882 110.706 212.028 101.223C212.249 101.7 212.44 102.183 212.589 102.676C213.386 105.262 214.08 107.811 214.676 110.313Z" fill="#F7D02F"/>
<path opacity="0.49" d="M217.052 124.297C211.201 127.024 204.271 127.617 197.963 126.001C204.651 125.382 211.088 122.555 216.26 118.191C216.594 120.258 216.856 122.293 217.052 124.297Z" fill="#F7D02F"/>
</g>
<defs>
<radialGradient id="paint0_radial_27_5095" cx="0" cy="0" r="1" gradientUnits="userSpaceOnUse" gradientTransform="translate(72.5545 55.8498) scale(235.562 240.344)">
<stop stop-color="#FFF148"/>
<stop offset="0.3197" stop-color="#FEEE44"/>
<stop offset="0.6148" stop-color="#FBE439"/>
<stop offset="0.8994" stop-color="#F6D327"/>
<stop offset="1" stop-color="#F4CB1E"/>
</radialGradient>
</defs>
</svg>
