<svg width="433" height="438" viewBox="0 0 433 438" fill="none" xmlns="http://www.w3.org/2000/svg">
<g filter="url(#filter0_i_244_5)">
<path d="M49.6195 242C54.1195 -32.5 378.62 -10.9999 378.62 242C458.902 360.654 434.12 416 378.62 430C323.12 444 228.962 430.492 215.119 368C181.143 436.032 91.1193 440 49.6195 430C8.11968 420 -30.2976 352.497 49.6195 242Z" fill="url(#paint0_radial_244_5)"/>
</g>
<path d="M215.119 368C228.962 430.492 323.12 444 378.62 430C434.12 416 458.902 360.654 378.62 242C378.62 -10.9999 54.1195 -32.5 49.6195 242C-30.2976 352.497 8.11968 420 49.6195 430C91.1193 440 181.143 436.032 215.119 368ZM215.119 368C214.735 352.139 210.167 347.759 196.619 345.5C202.404 349.98 187.62 394.5 164.62 374C141.619 353.5 194.31 337.723 197.254 346.272C197.254 346.272 197.119 323.5 170.119 322.5C143.119 321.5 142.119 357.5 100.119 359C58.1194 360.5 66.6194 307.5 66.6194 307.5" stroke="black" stroke-width="5" stroke-linecap="round"/>
<g style="mix-blend-mode:screen">
<path d="M235.5 400.5C235.5 400.5 260 426 326.5 426C393 426 428.5 378 428.5 380C414 452 282.5 447 235.5 400.5Z" fill="#20FFE5"/>
</g>
<g style="mix-blend-mode:screen">
<path d="M185 400.583C185 400.583 161.896 426.111 99.1865 426.111C36.4767 426.111 3 378.059 3 380.061C16.6736 452.14 140.679 447.134 185 400.583Z" fill="#20FFE5"/>
</g>
<path d="M215.119 368C228.962 430.492 323.12 444 378.62 430C434.12 416 458.902 360.654 378.62 242C378.62 -10.9999 54.1195 -32.5 49.6195 242C-30.2976 352.497 8.11968 420 49.6195 430C91.1193 440 181.143 436.032 215.119 368ZM215.119 368C214.735 352.139 210.167 347.759 196.619 345.5C202.404 349.98 187.62 394.5 164.62 374C141.619 353.5 194.31 337.723 197.254 346.272C197.254 346.272 197.119 323.5 170.119 322.5C143.119 321.5 142.119 357.5 100.119 359C58.1194 360.5 66.6194 307.5 66.6194 307.5" stroke="black" stroke-width="5" stroke-linecap="round"/>
<path d="M215.62 368C216.683 354.713 221.025 350.467 233.159 346.668M234.12 345.5L233.159 346.668M364.12 307.5C364.12 307.5 372.62 360.5 330.62 359C288.62 357.5 287.62 321.5 260.62 322.5C233.62 323.5 233.485 346.272 233.485 346.272C236.429 337.723 270.62 355.5 260.62 368C250.619 380.5 235.198 381.452 233.159 346.668" stroke="black" stroke-width="5" stroke-linecap="round"/>
<path d="M73.3867 8C73.4193 41.9992 79.1462 56.7525 108 82C95.7151 89.5868 89 101 73.3867 125C33.4953 84.1819 33.8995 58.477 73.3867 8Z" fill="#C4751D" stroke="black" stroke-width="5"/>
<path d="M350.738 8C350.706 41.9992 344.979 56.7525 316.125 82C328.41 89.5868 335.125 101 350.738 125C390.63 84.1819 390.226 58.477 350.738 8Z" fill="#C4751D" stroke="black" stroke-width="5"/>
<g style="mix-blend-mode:screen">
<path d="M46.5 68.5C62.5 71.5 68.7985 69.5578 93 92C86 98.5 80.5 112 71.5 120C42.5 87 46.5 74 46.5 68.5Z" fill="#C4751D"/>
</g>
<g style="mix-blend-mode:screen">
<path d="M377.625 68.5C361.625 71.5 355.326 69.5578 331.125 92C338.125 98.5 343.625 112 352.625 120C381.625 87 377.625 74 377.625 68.5Z" fill="#C4751D"/>
</g>
<g style="mix-blend-mode:multiply">
<path d="M72 13.5C72.5 44 79.7985 59.5578 104 82C98.5 86 105 80.5 96 88.5C67 55.5 59 27 72 13.5Z" fill="#C4751D"/>
</g>
<g style="mix-blend-mode:multiply">
<path d="M352.125 13.5C351.625 44 344.326 59.5578 320.125 82C325.625 86 319.125 80.5 328.125 88.5C357.125 55.5 365.125 27 352.125 13.5Z" fill="#C4751D"/>
</g>
<path d="M171 164.5C173.209 164.5 175.022 166.296 174.788 168.493C173.962 176.226 170.754 183.499 165.606 189.152C159.579 195.769 151.365 199.65 142.692 199.978C134.019 200.305 125.565 197.052 119.109 190.906C113.588 185.648 109.898 178.624 108.559 170.961C108.182 168.798 109.851 166.891 112.041 166.725L113.209 166.637C115.425 166.47 117.323 168.152 117.798 170.323C118.919 175.447 121.501 180.12 125.238 183.678C129.926 188.142 136.067 190.504 142.366 190.267C148.665 190.029 154.631 187.21 159.008 182.404C162.505 178.564 164.769 173.695 165.538 168.486C165.861 166.3 167.621 164.5 169.83 164.5H171Z" fill="#3A0000"/>
<path d="M169.001 164.5C170.999 164.5 172.641 166.126 172.408 168.11C171.622 174.817 168.661 181.121 163.926 186.027C158.349 191.806 150.748 195.195 142.722 195.48C134.696 195.766 126.873 192.926 120.899 187.559C115.828 183.001 112.426 176.924 111.165 170.291C110.791 168.327 112.314 166.589 114.307 166.447V166.447C116.3 166.305 118.004 167.817 118.447 169.766C119.529 174.528 122.061 178.872 125.736 182.175C130.315 186.29 136.312 188.467 142.465 188.248C148.617 188.029 154.444 185.431 158.718 181.001C162.15 177.445 164.366 172.932 165.107 168.105C165.41 166.129 167.002 164.5 169.001 164.5V164.5Z" fill="black"/>
<path d="M320 164.5C322.209 164.5 324.022 166.296 323.788 168.493C322.962 176.226 319.754 183.499 314.606 189.152C308.579 195.769 300.365 199.65 291.692 199.978C283.019 200.305 274.565 197.052 268.109 190.906C262.588 185.648 258.898 178.624 257.559 170.961C257.182 168.798 258.851 166.891 261.041 166.725L262.209 166.637C264.425 166.47 266.323 168.152 266.798 170.323C267.919 175.447 270.501 180.12 274.238 183.678C278.926 188.142 285.067 190.504 291.366 190.267C297.665 190.029 303.631 187.21 308.008 182.404C311.505 178.564 313.769 173.695 314.538 168.486C314.861 166.3 316.621 164.5 318.83 164.5H320Z" fill="#3A0000"/>
<path d="M318.001 164.5C319.999 164.5 321.641 166.126 321.408 168.11C320.622 174.817 317.661 181.121 312.926 186.027C307.349 191.806 299.748 195.195 291.722 195.48C283.696 195.766 275.873 192.926 269.899 187.559C264.828 183.001 261.426 176.924 260.165 170.291C259.791 168.327 261.314 166.589 263.307 166.447V166.447C265.3 166.305 267.004 167.817 267.447 169.766C268.529 174.528 271.061 178.872 274.736 182.175C279.315 186.29 285.312 188.467 291.465 188.248C297.617 188.029 303.444 185.431 307.718 181.001C311.15 177.445 313.366 172.932 314.107 168.105C314.41 166.129 316.002 164.5 318.001 164.5V164.5Z" fill="black"/>
<path d="M274.682 221.5C279.065 221.5 282.685 225.233 280.613 229.096C277.754 234.424 271.914 239.36 263.55 243.374C251.317 249.246 234.643 252.69 217.038 252.98C199.434 253.27 182.273 250.385 169.169 244.93C160.51 241.326 154.07 236.786 150.336 231.771C147.519 227.989 150.94 223.603 155.654 223.447V223.447C159.632 223.316 163.042 226.347 165.45 229.516C168.328 233.303 173.224 236.732 179.78 239.461C189.824 243.641 202.979 245.854 216.473 245.631C229.968 245.408 242.75 242.769 252.127 238.268C257.704 235.591 261.818 232.379 264.236 228.9C266.738 225.301 270.298 221.5 274.682 221.5V221.5Z" fill="#3A0000"/>
<path d="M274.682 218C279.065 218 282.685 221.733 280.613 225.596C277.754 230.924 271.914 235.86 263.55 239.874C251.317 245.746 234.643 249.19 217.038 249.48C199.434 249.77 182.273 246.885 169.169 241.43C160.51 237.826 154.07 233.286 150.336 228.271C147.519 224.489 150.94 220.103 155.654 219.947V219.947C159.632 219.816 163.042 222.847 165.45 226.016C168.328 229.803 173.224 233.232 179.78 235.961C189.824 240.141 202.979 242.354 216.473 242.131C229.968 241.908 242.75 239.269 252.127 234.768C257.704 232.091 261.818 228.879 264.236 225.4C266.738 221.801 270.298 218 274.682 218V218Z" fill="black"/>
<g style="mix-blend-mode:multiply">
<path d="M80.2619 50.1893L89.2615 64.1891L90.0152 65.3601L88.9025 66.1983L52.4034 93.6978L51.2657 94.5546L50.3507 93.4631C47.864 90.4966 46.4769 87.7876 45.7464 84.7968C45.0287 81.8578 44.9662 78.7191 45.0002 74.986L45.007 74.2375L45.6093 73.7931L78.1088 49.7936L79.3964 48.8427L80.2619 50.1893Z" fill="#E38427"/>
<path d="M80.2619 50.1893L89.2615 64.1891L90.0152 65.3601L88.9025 66.1983L52.4034 93.6978L51.2657 94.5546L50.3507 93.4631C47.864 90.4966 46.4769 87.7876 45.7464 84.7968C45.0287 81.8578 44.9662 78.7191 45.0002 74.986L45.007 74.2375L45.6093 73.7931L78.1088 49.7936L79.3964 48.8427L80.2619 50.1893Z" stroke="black" stroke-width="3"/>
</g>
<g style="mix-blend-mode:multiply">
<path d="M343.863 50.1893L334.863 64.1891L334.11 65.3601L335.222 66.1983L371.722 93.6978L372.859 94.5546L373.774 93.4631C376.261 90.4966 377.648 87.7876 378.379 84.7968C379.096 81.8578 379.159 78.7191 379.125 74.986L379.118 74.2375L378.516 73.7931L346.016 49.7936L344.729 48.8427L343.863 50.1893Z" fill="#E38427"/>
<path d="M343.863 50.1893L334.863 64.1891L334.11 65.3601L335.222 66.1983L371.722 93.6978L372.859 94.5546L373.774 93.4631C376.261 90.4966 377.648 87.7876 378.379 84.7968C379.096 81.8578 379.159 78.7191 379.125 74.986L379.118 74.2375L378.516 73.7931L346.016 49.7936L344.729 48.8427L343.863 50.1893Z" stroke="black" stroke-width="3"/>
</g>
<g style="mix-blend-mode:multiply">
<path d="M107.59 83.5309L71.5525 121.632L70.3955 122.856L69.3137 121.565C64.5502 115.883 65.2764 116.869 60.2519 109.333L59.5038 108.209L60.5407 107.347L99.0416 75.3459L100.052 74.5063L101.018 75.398L107.518 81.3977L108.633 82.4275L107.59 83.5309Z" fill="#E38427"/>
<path d="M107.59 83.5309L71.5525 121.632L70.3955 122.856L69.3137 121.565C64.5502 115.883 65.2764 116.869 60.2519 109.333L59.5038 108.209L60.5407 107.347L99.0416 75.3459L100.052 74.5063L101.018 75.398L107.518 81.3977L108.633 82.4275L107.59 83.5309Z" stroke="black" stroke-width="3"/>
</g>
<g style="mix-blend-mode:multiply">
<path d="M316.535 83.5309L352.573 121.632L353.729 122.856L354.811 121.565C359.575 115.883 358.849 116.869 363.873 109.333L364.621 108.209L363.584 107.347L325.083 75.3459L324.073 74.5063L323.107 75.398L316.607 81.3977L315.492 82.4275L316.535 83.5309Z" fill="#E38427"/>
<path d="M316.535 83.5309L352.573 121.632L353.729 122.856L354.811 121.565C359.575 115.883 358.849 116.869 363.873 109.333L364.621 108.209L363.584 107.347L325.083 75.3459L324.073 74.5063L323.107 75.398L316.607 81.3977L315.492 82.4275L316.535 83.5309Z" stroke="black" stroke-width="3"/>
</g>
<g style="mix-blend-mode:multiply">
<path d="M72.4939 13.8715L74.0317 31.7703L74.0974 32.5348L73.515 33.0357L73.5142 33.0363C73.5135 33.037 73.5125 33.0389 73.511 33.0401C73.508 33.0427 73.503 33.0461 73.4972 33.0511C73.4854 33.0612 73.4678 33.0766 73.4447 33.0965C73.3983 33.1364 73.3294 33.1957 73.2395 33.273C73.0596 33.4279 72.7955 33.6553 72.4588 33.9451C71.7851 34.5248 70.8207 35.3549 69.6591 36.3555C67.3357 38.3568 64.2216 41.0409 61.0615 43.7716C54.6974 49.271 48.2592 54.8621 47.5604 55.561C47.5334 55.588 47.3407 55.7905 47.0422 55.9198C46.902 55.9806 46.4216 56.1657 45.8552 55.9306C45.2104 55.6629 45.0092 55.0983 44.9557 54.8492C44.9028 54.6032 44.9245 54.4018 44.9339 54.3254C44.9461 54.2272 44.9657 54.1458 44.9794 54.0936C45.0067 53.989 45.0404 53.8943 45.0664 53.8263C45.1665 53.5648 45.346 53.1922 45.5579 52.7741C45.9987 51.9045 46.7088 50.5908 47.6083 48.9736C49.4115 45.7315 52.0103 41.2077 54.8264 36.4421C57.6424 31.6769 60.6821 26.6588 63.3662 22.4278C66.0275 18.2327 68.4007 14.7128 69.8659 13.0188L72.1908 10.3307L72.4939 13.8715Z" fill="#E38427"/>
<path d="M72.4939 13.8715L74.0317 31.7703L74.0974 32.5348L73.515 33.0357L73.5142 33.0363C73.5135 33.037 73.5125 33.0389 73.511 33.0401C73.508 33.0427 73.503 33.0461 73.4972 33.0511C73.4854 33.0612 73.4678 33.0766 73.4447 33.0965C73.3983 33.1364 73.3294 33.1957 73.2395 33.273C73.0596 33.4279 72.7955 33.6553 72.4588 33.9451C71.7851 34.5248 70.8207 35.3549 69.6591 36.3555C67.3357 38.3568 64.2216 41.0409 61.0615 43.7716C54.6974 49.271 48.2592 54.8621 47.5604 55.561C47.5334 55.588 47.3407 55.7905 47.0422 55.9198C46.902 55.9806 46.4216 56.1657 45.8552 55.9306C45.2104 55.6629 45.0092 55.0983 44.9557 54.8492C44.9028 54.6032 44.9245 54.4018 44.9339 54.3254C44.9461 54.2272 44.9657 54.1458 44.9794 54.0936C45.0067 53.989 45.0404 53.8943 45.0664 53.8263C45.1665 53.5648 45.346 53.1922 45.5579 52.7741C45.9987 51.9045 46.7088 50.5908 47.6083 48.9736C49.4115 45.7315 52.0103 41.2077 54.8264 36.4421C57.6424 31.6769 60.6821 26.6588 63.3662 22.4278C66.0275 18.2327 68.4007 14.7128 69.8659 13.0188L72.1908 10.3307L72.4939 13.8715Z" stroke="black" stroke-width="3"/>
</g>
<g style="mix-blend-mode:multiply">
<path d="M351.631 13.8715L350.093 31.7703L350.028 32.5348L350.61 33.0357L350.611 33.0363C350.612 33.037 350.613 33.0389 350.614 33.0401C350.617 33.0427 350.622 33.0461 350.628 33.0511C350.64 33.0612 350.657 33.0766 350.68 33.0965C350.727 33.1364 350.796 33.1957 350.885 33.273C351.065 33.4279 351.329 33.6553 351.666 33.9451C352.34 34.5248 353.304 35.3549 354.466 36.3555C356.789 38.3568 359.903 41.0409 363.063 43.7716C369.428 49.271 375.866 54.8621 376.565 55.561C376.592 55.588 376.784 55.7905 377.083 55.9198C377.223 55.9806 377.703 56.1657 378.27 55.9306C378.915 55.6629 379.116 55.0983 379.169 54.8492C379.222 54.6032 379.201 54.4018 379.191 54.3254C379.179 54.2272 379.159 54.1458 379.146 54.0936C379.118 53.989 379.085 53.8943 379.059 53.8263C378.958 53.5648 378.779 53.1922 378.567 52.7741C378.126 51.9045 377.416 50.5908 376.517 48.9736C374.713 45.7315 372.115 41.2077 369.299 36.4421C366.483 31.6769 363.443 26.6588 360.759 22.4278C358.098 18.2327 355.724 14.7128 354.259 13.0188L351.934 10.3307L351.631 13.8715Z" fill="#E38427"/>
<path d="M351.631 13.8715L350.093 31.7703L350.028 32.5348L350.61 33.0357L350.611 33.0363C350.612 33.037 350.613 33.0389 350.614 33.0401C350.617 33.0427 350.622 33.0461 350.628 33.0511C350.64 33.0612 350.657 33.0766 350.68 33.0965C350.727 33.1364 350.796 33.1957 350.885 33.273C351.065 33.4279 351.329 33.6553 351.666 33.9451C352.34 34.5248 353.304 35.3549 354.466 36.3555C356.789 38.3568 359.903 41.0409 363.063 43.7716C369.428 49.271 375.866 54.8621 376.565 55.561C376.592 55.588 376.784 55.7905 377.083 55.9198C377.223 55.9806 377.703 56.1657 378.27 55.9306C378.915 55.6629 379.116 55.0983 379.169 54.8492C379.222 54.6032 379.201 54.4018 379.191 54.3254C379.179 54.2272 379.159 54.1458 379.146 54.0936C379.118 53.989 379.085 53.8943 379.059 53.8263C378.958 53.5648 378.779 53.1922 378.567 52.7741C378.126 51.9045 377.416 50.5908 376.517 48.9736C374.713 45.7315 372.115 41.2077 369.299 36.4421C366.483 31.6769 363.443 26.6588 360.759 22.4278C358.098 18.2327 355.724 14.7128 354.259 13.0188L351.934 10.3307L351.631 13.8715Z" stroke="black" stroke-width="3"/>
</g>
<defs>
<filter id="filter0_i_244_5" x="0.499023" y="41.6055" width="431.956" height="395.929" filterUnits="userSpaceOnUse" color-interpolation-filters="sRGB">
<feFlood flood-opacity="0" result="BackgroundImageFix"/>
<feBlend mode="normal" in="SourceGraphic" in2="BackgroundImageFix" result="shape"/>
<feColorMatrix in="SourceAlpha" type="matrix" values="0 0 0 0 0 0 0 0 0 0 0 0 0 0 0 0 0 0 127 0" result="hardAlpha"/>
<feOffset dy="18"/>
<feComposite in2="hardAlpha" operator="arithmetic" k2="-1" k3="1"/>
<feColorMatrix type="matrix" values="0 0 0 0 0.0630719 0 0 0 0 0.0235294 0 0 0 0 0.239216 0 0 0 1 0"/>
<feBlend mode="normal" in2="shape" result="effect1_innerShadow_244_5"/>
</filter>
<radialGradient id="paint0_radial_244_5" cx="0" cy="0" r="1" gradientUnits="userSpaceOnUse" gradientTransform="translate(216 182) rotate(90) scale(333.5 548.289)">
<stop stop-color="#10FF97"/>
<stop offset="1" stop-color="#6320FF"/>
</radialGradient>
</defs>
</svg>
